<?xml version="1.0" encoding="UTF-8" standalone="no"?>
<svg
   xmlns:dc="http://purl.org/dc/elements/1.1/"
   xmlns:cc="http://creativecommons.org/ns#"
   xmlns:rdf="http://www.w3.org/1999/02/22-rdf-syntax-ns#"
   xmlns:svg="http://www.w3.org/2000/svg"
   xmlns="http://www.w3.org/2000/svg"
   xmlns:sodipodi="http://sodipodi.sourceforge.net/DTD/sodipodi-0.dtd"
   xmlns:inkscape="http://www.inkscape.org/namespaces/inkscape"
   inkscape:version="1.0 (4035a4fb49, 2020-05-01)"
   sodipodi:docname="gs.svg"
   id="svg8"
   version="1.1"
   viewBox="0 0 67.733332 67.733331"
   height="256"
   width="256">
  <defs
     id="defs2">
    <filter
       id="filter115"
       inkscape:label="Invert"
       style="color-interpolation-filters:sRGB;">
      <feColorMatrix
         id="feColorMatrix113"
         result="fbSourceGraphic"
         values="-1 0 0 0 1 0 -1 0 0 1 0 0 -1 0 1 0.21 0.72 0.07 1 0 " />
      <feColorMatrix
         id="feColorMatrix117"
         values="0 0 0 -1 0 0 0 0 -1 0 0 0 0 -1 0 0 0 0 1 0"
         in="fbSourceGraphic"
         result="fbSourceGraphicAlpha" />
      <feColorMatrix
         in="fbSourceGraphic"
         result="fbSourceGraphic"
         values="-1 0 0 0 1 0 -1 0 0 1 0 0 -1 0 1 0.21 0.72 0.07 1 0 "
         id="feColorMatrix119" />
      <feColorMatrix
         id="feColorMatrix121"
         values="0 0 0 -1 0 0 0 0 -1 0 0 0 0 -1 0 0 0 0 1 0"
         in="fbSourceGraphic"
         result="fbSourceGraphicAlpha" />
      <feColorMatrix
         in="fbSourceGraphic"
         result="color2"
         values="-1 0 0 0 1 0 -1 0 0 1 0 0 -1 0 1 0.21 0.72 0.07 1 0 "
         id="feColorMatrix123" />
    </filter>
  </defs>
  <sodipodi:namedview
     inkscape:window-maximized="1"
     inkscape:window-y="-8"
     inkscape:window-x="1912"
     inkscape:window-height="1377"
     inkscape:window-width="2560"
     units="px"
     showgrid="false"
     inkscape:document-rotation="0"
     inkscape:current-layer="layer1"
     inkscape:document-units="mm"
     inkscape:cy="175.03806"
     inkscape:cx="220.27283"
     inkscape:zoom="2"
     inkscape:pageshadow="2"
     inkscape:pageopacity="0.0"
     borderopacity="1.0"
     bordercolor="#666666"
     pagecolor="#ffffff"
     id="base" />
  <metadata
     id="metadata5">
    <rdf:RDF>
      <cc:Work
         rdf:about="">
        <dc:format>image/svg+xml</dc:format>
        <dc:type
           rdf:resource="http://purl.org/dc/dcmitype/StillImage" />
        <dc:title></dc:title>
      </cc:Work>
    </rdf:RDF>
  </metadata>
  <g
     id="layer1"
     inkscape:groupmode="layer"
     inkscape:label="Ebene 1">
    <path
       style="fill:#000000;stroke-width:0.264583;filter:url(#filter115)"
       d="M 13.565468,57.440772 C 10.645427,57.012909 8.0291544,55.83786 5.8995554,53.997775 c -0.955834,-0.825889 -3.018298,-3.177651 -3.018298,-3.441671 0,-0.1075 0.539649,-0.637661 1.199219,-1.178128 1.199219,-0.982671 1.199219,-0.982671 1.771566,-0.230312 2.557851,3.362341 6.4112146,5.117986 11.2331706,5.117986 4.0791,0 7.103225,-1.150374 9.223467,-3.508592 1.899544,-2.112751 2.30293,-3.55523 2.422371,-8.662241 0.102103,-4.365624 0.102103,-4.365624 -0.485339,-3.571875 -2.129815,2.877796 -6.007736,5.218414 -9.42331,5.687671 C 11.547601,45.210087 4.5576434,40.121983 2.4669784,32.305235 1.8669609,30.061838 1.8616519,25.909937 2.4556544,23.449004 3.7855384,17.939332 7.8411374,13.381141 12.736351,11.894265 c 2.410303,-0.732107 6.731333,-0.607247 8.930322,0.258049 1.934434,0.761194 4.766724,2.925771 6.153778,4.703022 1.122264,1.437973 1.122264,1.437973 1.196554,-1.742522 0.07429,-3.180495 0.07429,-3.180495 1.918229,-3.180495 1.843939,0 1.843939,0 1.843939,17.302336 0,16.449867 -0.02561,17.385185 -0.519676,18.983853 -1.052877,3.406812 -3.333639,5.98765 -6.756365,7.645299 -3.27313,1.585198 -7.800158,2.183218 -11.937664,1.576965 z m 9.230187,-17.803244 c 1.435794,-0.709612 2.421074,-1.448088 3.56831,-2.674486 2.261721,-2.417786 2.446458,-3.108896 2.446458,-9.152277 0,-4.92937 0,-4.92937 -0.927128,-6.501303 C 26.025856,18.160206 22.513077,15.684578 19.148,15.153272 12.783065,14.148325 7.3710164,18.815117 6.3217664,26.213293 c -0.699319,4.930839 1.602929,10.17028 5.5943366,12.731558 2.271117,1.45737 3.72525,1.851584 6.479057,1.756453 2.16559,-0.07481 2.623362,-0.18547 4.400495,-1.063776 z m 25.461643,4.463378 c -2.604791,-0.599736 -5.180785,-1.679596 -7.077604,-2.96695 -0.982266,-0.666652 -1.785937,-1.267272 -1.785937,-1.334717 0,-0.0956 1.386657,-2.233167 1.748385,-2.695171 0.04132,-0.05278 0.911891,0.460316 1.934599,1.140212 3.517984,2.33875 6.632691,3.213449 10.677197,2.998462 1.72457,-0.09167 2.84784,-0.305538 3.827711,-0.728795 3.47409,-1.500645 4.802333,-5.393151 2.669294,-7.822547 -1.089274,-1.240615 -2.898487,-2.017057 -7.363436,-3.160089 -7.442931,-1.905402 -9.483596,-2.781025 -10.944244,-4.69603 -1.364049,-1.78836 -1.439177,-5.3828 -0.167418,-8.009903 0.642845,-1.327941 2.65116,-3.292572 4.144637,-4.054488 2.652588,-1.353249 7.884301,-1.798666 11.397393,-0.970351 2.036522,0.480172 4.622829,1.719008 5.994847,2.87152 1.127824,0.94739 1.123257,1.013857 -0.174196,2.53509 -0.729192,0.854956 -0.729192,0.854956 -1.559073,0.156657 -2.189234,-1.842119 -5.414812,-2.869087 -8.95653,-2.851605 -5.081704,0.02508 -7.689694,2.036036 -7.708381,5.943732 -0.01386,2.898637 1.036066,3.632595 7.659301,5.354252 8.103973,2.106564 10.460379,3.223381 11.873521,5.627455 0.657164,1.117992 0.743265,1.524995 0.743265,3.513428 0,1.342218 -0.152564,2.622323 -0.378402,3.174999 -1.05265,2.576102 -3.204477,4.501917 -6.236181,5.581192 -2.050857,0.730094 -7.889994,0.952846 -10.318748,0.393647 z"
       id="path62" />
  </g>
</svg>
