<?xml version="1.0" encoding="UTF-8" standalone="no"?>
<svg
   xmlns:dc="http://purl.org/dc/elements/1.1/"
   xmlns:cc="http://creativecommons.org/ns#"
   xmlns:rdf="http://www.w3.org/1999/02/22-rdf-syntax-ns#"
   xmlns:svg="http://www.w3.org/2000/svg"
   xmlns="http://www.w3.org/2000/svg"
   xmlns:sodipodi="http://sodipodi.sourceforge.net/DTD/sodipodi-0.dtd"
   xmlns:inkscape="http://www.inkscape.org/namespaces/inkscape"
   inkscape:version="1.0 (4035a4fb49, 2020-05-01)"
   sodipodi:docname="gs.svg"
   id="svg8"
   version="1.1"
   viewBox="0 0 67.733332 67.733331"
   height="256"
   width="256">
  <defs
     id="defs2">
    <filter
       id="filter115"
       inkscape:label="Invert"
       style="color-interpolation-filters:sRGB;">
      <feColorMatrix
         id="feColorMatrix113"
         result="fbSourceGraphic"
         values="-1 0 0 0 1 0 -1 0 0 1 0 0 -1 0 1 0.21 0.72 0.07 1 0 " />
      <feColorMatrix
         id="feColorMatrix117"
         values="0 0 0 -1 0 0 0 0 -1 0 0 0 0 -1 0 0 0 0 1 0"
         in="fbSourceGraphic"
         result="fbSourceGraphicAlpha" />
      <feColorMatrix
         in="fbSourceGraphic"
         result="fbSourceGraphic"
         values="-1 0 0 0 1 0 -1 0 0 1 0 0 -1 0 1 0.21 0.72 0.07 1 0 "
         id="feColorMatrix119" />
      <feColorMatrix
         id="feColorMatrix121"
         values="0 0 0 -1 0 0 0 0 -1 0 0 0 0 -1 0 0 0 0 1 0"
         in="fbSourceGraphic"
         result="fbSourceGraphicAlpha" />
      <feColorMatrix
         in="fbSourceGraphic"
         result="color2"
         values="-1 0 0 0 1 0 -1 0 0 1 0 0 -1 0 1 0.21 0.72 0.07 1 0 "
         id="feColorMatrix123" />
    </filter>
  </defs>
  <sodipodi:namedview
     inkscape:window-maximized="1"
     inkscape:window-y="-8"
     inkscape:window-x="1912"
     inkscape:window-height="1377"
     inkscape:window-width="2560"
     units="px"
     showgrid="false"
     inkscape:document-rotation="0"
     inkscape:current-layer="layer1"
     inkscape:document-units="mm"
     inkscape:cy="58.571216"
     inkscape:cx="197.88069"
     inkscape:zoom="2.8284271"
     inkscape:pageshadow="2"
     inkscape:pageopacity="0.0"
     borderopacity="1.0"
     bordercolor="#666666"
     pagecolor="#ffffff"
     id="base" />
  <metadata
     id="metadata5">
    <rdf:RDF>
      <cc:Work
         rdf:about="">
        <dc:format>image/svg+xml</dc:format>
        <dc:type
           rdf:resource="http://purl.org/dc/dcmitype/StillImage" />
        <dc:title></dc:title>
      </cc:Work>
    </rdf:RDF>
  </metadata>
  <g
     id="layer1"
     inkscape:groupmode="layer"
     inkscape:label="Ebene 1">
    <g
       style="font-style:normal;font-weight:normal;font-size:10.5833px;line-height:66.1458px;font-family:sans-serif;fill:#000000;fill-opacity:1;stroke:none;stroke-width:0.264583"
       id="text127" />
    <g
       style="font-style:normal;font-weight:normal;font-size:60.8542px;line-height:0.75;font-family:sans-serif;fill:#000000;fill-opacity:1;stroke:none;stroke-width:0.264583"
       id="text141"
       aria-label="gs">
      <path
         id="path143"
         style="font-style:normal;font-variant:normal;font-weight:normal;font-stretch:normal;font-size:60.8542px;font-family:Raleway;-inkscape-font-specification:Raleway;fill:#ffffff;stroke-width:0.264583"
         d="m 17.469681,45.140171 q -3.286127,0 -6.024565,-1.338793 Q 8.7675308,42.401732 6.7593423,40.150127 4.8120079,37.898521 3.7166324,34.97752 2.6212568,32.056518 2.6212568,28.952954 q 0,-3.286127 1.0345214,-6.267982 1.0953755,-3.04271 3.0427099,-5.294316 1.9473343,-2.251605 4.6249189,-3.590397 2.738439,-1.338793 6.024566,-1.338793 4.077231,0 7.059087,2.069043 2.981856,2.008189 5.111753,5.111753 v -6.633108 h 3.712106 V 44.8359 q 0,3.286127 -1.277939,5.781149 -1.217084,2.555876 -3.34698,4.259794 -2.069043,1.703917 -4.929191,2.555876 -2.799293,0.851959 -5.963711,0.851959 -5.476878,0 -8.8238588,-1.947335 -3.3469809,-1.947334 -5.4160236,-5.233461 l 2.5558763,-2.008188 q 1.8864802,3.04271 4.9900441,4.442356 3.103564,1.460501 6.693962,1.460501 2.31246,0 4.381502,-0.669396 2.069043,-0.608542 3.590398,-1.88648 1.582209,-1.217084 2.495022,-3.164419 0.912813,-1.88648 0.912813,-4.442356 v -6.267983 q -1.825626,3.04271 -4.990044,4.807482 -3.164418,1.764772 -6.633108,1.764772 z m 1.15623,-3.468689 q 1.825626,0 3.590398,-0.669397 1.764771,-0.669396 3.164418,-1.764771 1.460501,-1.15623 2.434168,-2.555877 0.973667,-1.399646 1.277938,-2.860147 v -9.797526 q -0.669396,-1.703918 -1.825626,-3.164418 -1.15623,-1.460501 -2.61673,-2.495022 -1.460501,-1.034522 -3.164419,-1.643064 -1.643063,-0.608542 -3.346981,-0.608542 -2.677584,0 -4.807481,1.15623 -2.069043,1.095376 -3.5295438,2.921001 -1.4605008,1.825626 -2.2516053,4.138086 -0.7302504,2.312459 -0.7302504,4.685773 0,2.555877 0.912813,4.868336 0.9128129,2.31246 2.4950225,4.077231 1.643063,1.703918 3.77296,2.738439 2.129897,0.973668 4.624919,0.973668 z" />
      <path
         id="path145"
         style="font-style:normal;font-variant:normal;font-weight:normal;font-stretch:normal;font-size:60.8542px;font-family:Raleway;-inkscape-font-specification:Raleway;fill:#ffffff;stroke-width:0.264583"
         d="m 52.837379,45.322733 q -3.712106,0 -7.24165,-1.217084 -3.529543,-1.217084 -6.08542,-3.529543 l 1.886481,-2.799293 q 2.677584,2.190751 5.416023,3.286127 2.799293,1.095375 5.963712,1.095375 3.833814,0 6.08542,-1.521355 2.312459,-1.582209 2.312459,-4.442356 0,-1.338793 -0.608542,-2.190751 Q 59.95732,33.09104 58.740236,32.421643 57.584006,31.752247 55.75838,31.265414 53.993609,30.717726 51.620295,30.170038 48.881856,29.500642 46.873667,28.831246 44.865479,28.161849 43.526686,27.309891 42.248748,26.457932 41.579352,25.240848 40.97081,23.96291 40.97081,22.07643 q 0,-2.373314 0.912813,-4.19894 0.973667,-1.825626 2.555876,-2.981856 1.643064,-1.217084 3.772961,-1.825626 2.190751,-0.608542 4.624919,-0.608542 3.651252,0 6.633107,1.217084 2.981856,1.15623 4.807482,3.103564 L 62.26978,19.216282 Q 60.505008,17.390656 57.949132,16.477843 55.454109,15.56503 52.71567,15.56503 q -1.643063,0 -3.042709,0.365126 -1.399647,0.304271 -2.495023,1.034521 -1.034521,0.73025 -1.643063,1.88648 -0.608542,1.095376 -0.608542,2.616731 0,1.277938 0.425979,2.069042 0.42598,0.791105 1.399647,1.399647 0.973667,0.547688 2.434168,1.034521 1.521355,0.42598 3.651252,0.912813 3.04271,0.730251 5.355169,1.460501 2.31246,0.73025 3.833815,1.703918 1.582209,0.973667 2.373314,2.373313 0.791104,1.399647 0.791104,3.407835 0,4.381503 -3.346981,6.937379 -3.346981,2.555876 -9.006421,2.555876 z" />
    </g>
  </g>
</svg>
